<svg width="24" height="24" viewBox="0 0 24 24" fill="none" xmlns="http://www.w3.org/2000/svg">
<path fill-rule="evenodd" clip-rule="evenodd" d="M12 4.5C10.4087 4.5 8.88258 5.13214 7.75736 6.25736C6.63214 7.38258 6 8.9087 6 10.5C6 12.8235 7.5118 15.0782 9.16946 16.8279C9.98296 17.6866 10.799 18.3896 11.4125 18.8781C11.6408 19.0599 11.8403 19.2114 12 19.3294C12.1597 19.2114 12.3592 19.0599 12.5875 18.8781C13.201 18.3896 14.017 17.6866 14.8305 16.8279C16.4882 15.0782 18 12.8235 18 10.5C18 8.9087 17.3679 7.38258 16.2426 6.25736C15.1174 5.13214 13.5913 4.5 12 4.5ZM12 20.25C11.584 20.874 11.5838 20.8739 11.5836 20.8738L11.5814 20.8723L11.5764 20.869L11.5592 20.8574C11.5446 20.8474 11.5238 20.8332 11.4972 20.8147C11.4439 20.7778 11.3673 20.7241 11.2708 20.6544C11.0779 20.5151 10.8048 20.3117 10.4781 20.0516C9.826 19.5323 8.95454 18.7821 8.08054 17.8596C6.3632 16.0468 4.5 13.4265 4.5 10.5C4.5 8.51088 5.29018 6.60322 6.6967 5.1967C8.10322 3.79018 10.0109 3 12 3C13.9891 3 15.8968 3.79018 17.3033 5.1967C18.7098 6.60322 19.5 8.51088 19.5 10.5C19.5 13.4265 17.6368 16.0468 15.9195 17.8596C15.0455 18.7821 14.174 19.5323 13.5219 20.0516C13.1952 20.3117 12.9221 20.5151 12.7292 20.6544C12.6327 20.7241 12.5561 20.7778 12.5028 20.8147C12.4762 20.8332 12.4554 20.8474 12.4408 20.8574L12.4236 20.869L12.4186 20.8723L12.417 20.8734C12.4168 20.8735 12.416 20.874 12 20.25ZM12 20.25L12.416 20.874C12.1641 21.042 11.8355 21.0417 11.5836 20.8738L12 20.25Z" fill="#1EC6A7"/>
<path fill-rule="evenodd" clip-rule="evenodd" d="M12 9C11.1716 9 10.5 9.67157 10.5 10.5C10.5 11.3284 11.1716 12 12 12C12.8284 12 13.5 11.3284 13.5 10.5C13.5 9.67157 12.8284 9 12 9ZM9 10.5C9 8.84315 10.3431 7.5 12 7.5C13.6569 7.5 15 8.84315 15 10.5C15 12.1569 13.6569 13.5 12 13.5C10.3431 13.5 9 12.1569 9 10.5Z" fill="#1EC6A7"/>
</svg>
