<svg width="18" height="18" viewBox="0 0 18 18" fill="none" xmlns="http://www.w3.org/2000/svg">
<path d="M15 17.175C14.925 17.175 14.85 17.175 14.775 17.175C12.375 16.875 9.975 16.05 7.95 14.775C6.075 13.575 4.425 11.925 3.225 10.05C1.875 8.02505 1.05 5.62505 0.824997 3.22505C0.824997 2.62505 0.974997 2.02505 1.35 1.57505C1.725 1.12505 2.25 0.825049 2.85 0.750049C2.925 0.750049 3 0.750049 3.075 0.750049H5.325C6.45 0.750049 7.425 1.57505 7.575 2.70005C7.65 3.37505 7.8 4.05005 8.025 4.65005C8.325 5.47505 8.1 6.37505 7.5 7.05005L6.975 7.57505C7.875 8.92505 9 10.125 10.425 11.025L10.95 10.5C11.55 9.90005 12.525 9.67505 13.35 9.97505C13.95 10.2 14.625 10.35 15.3 10.425C16.425 10.575 17.25 11.55 17.25 12.675V14.925C17.25 15.525 17.025 16.125 16.575 16.5C16.125 16.875 15.6 17.175 15 17.175ZM5.325 2.25005H3.075C2.85 2.25005 2.625 2.40005 2.475 2.55005C2.4 2.70005 2.325 2.85005 2.325 3.07505C2.55 5.25005 3.3 7.35005 4.5 9.22505C5.625 10.95 7.05 12.45 8.775 13.5C10.65 14.7 12.75 15.45 14.925 15.675C15.225 15.675 15.375 15.6 15.525 15.45C15.675 15.3 15.75 15.15 15.75 14.925V12.675C15.75 12.3 15.45 12 15.075 11.925C14.325 11.85 13.575 11.625 12.825 11.325C12.525 11.25 12.225 11.25 12 11.475L11.025 12.45C10.8 12.675 10.425 12.75 10.125 12.6C8.1 11.475 6.45 9.82505 5.325 7.80005C5.25 7.50005 5.325 7.12505 5.55 6.90005L6.525 5.92505C6.675 5.77505 6.75 5.40005 6.675 5.17505C6.375 4.42505 6.225 3.67505 6.075 2.92505C6.075 2.55005 5.7 2.25005 5.325 2.25005ZM14.25 7.50005C13.875 7.50005 13.575 7.27505 13.5 6.90005C13.275 5.70005 12.3 4.80005 11.1 4.50005C10.725 4.42505 10.425 4.05005 10.5 3.60005C10.575 3.22505 10.95 2.92505 11.4 3.00005C13.2 3.37505 14.625 4.72505 14.925 6.52505C15 6.90005 14.775 7.35005 14.325 7.42505C14.325 7.42505 14.325 7.50005 14.25 7.50005ZM17.25 7.42505C16.875 7.42505 16.575 7.12505 16.5 6.75005C16.2 3.97505 14.025 1.80005 11.175 1.42505C10.8 1.35005 10.5 0.975049 10.5 0.600049C10.5 0.225049 10.95 -0.0749512 11.325 -0.0749512C14.85 0.300049 17.55 3.00005 17.925 6.52505C18 6.90005 17.7 7.27505 17.25 7.35005C17.325 7.42505 17.25 7.42505 17.25 7.42505Z" fill="#1EC6A7"/>
</svg>
