<svg width="24" height="24" viewBox="0 0 24 24" fill="none" xmlns="http://www.w3.org/2000/svg">
<path fill-rule="evenodd" clip-rule="evenodd" d="M6 6.75C5.58921 6.75 5.25 7.08921 5.25 7.5V16.5C5.25 16.9108 5.58921 17.25 6 17.25H18C18.4108 17.25 18.75 16.9108 18.75 16.5V7.5C18.75 7.08921 18.4108 6.75 18 6.75H6ZM3.75 7.5C3.75 6.26079 4.76079 5.25 6 5.25H18C19.2392 5.25 20.25 6.26079 20.25 7.5V16.5C20.25 17.7392 19.2392 18.75 18 18.75H6C4.76079 18.75 3.75 17.7392 3.75 16.5V7.5Z" fill="#1EC6A7"/>
<path fill-rule="evenodd" clip-rule="evenodd" d="M3.88558 7.06997C4.12312 6.73063 4.59076 6.6481 4.9301 6.88564L12 11.8346L19.0699 6.88564C19.4092 6.6481 19.8769 6.73063 20.1144 7.06997C20.352 7.4093 20.2694 7.87695 19.9301 8.11449L12.4301 13.3645C12.1719 13.5453 11.8281 13.5453 11.5699 13.3645L4.06991 8.11449C3.73057 7.87695 3.64804 7.4093 3.88558 7.06997Z" fill="#1EC6A7"/>
</svg>
