<svg width="20" height="19" viewBox="0 0 20 19" fill="none" xmlns="http://www.w3.org/2000/svg">
<path fill-rule="evenodd" clip-rule="evenodd" d="M10 0.833344C10.3172 0.833344 10.6069 1.0134 10.7473 1.29782L13.1286 6.12207L18.4539 6.90044C18.7677 6.94631 19.0282 7.16631 19.126 7.46798C19.2239 7.76966 19.142 8.1007 18.9148 8.32198L15.0621 12.0745L15.9713 17.3758C16.025 17.6885 15.8964 18.0044 15.6398 18.1909C15.3831 18.3773 15.0429 18.4019 14.7621 18.2542L10 15.7499L5.23788 18.2542C4.95712 18.4019 4.61687 18.3773 4.36023 18.1909C4.10358 18.0044 3.97504 17.6885 4.02866 17.3758L4.9379 12.0745L1.08523 8.32198C0.858045 8.1007 0.776151 7.76966 0.873966 7.46798C0.97178 7.16631 1.23235 6.94631 1.54615 6.90044L6.87145 6.12207L9.25275 1.29782C9.39314 1.0134 9.68282 0.833344 10 0.833344ZM10 3.54939L8.17226 7.2522C8.05098 7.4979 7.81666 7.66829 7.54553 7.70792L3.45701 8.30551L6.41478 11.1864C6.61134 11.3778 6.70106 11.6538 6.65468 11.9242L5.95682 15.9931L9.61213 14.0708C9.85495 13.9431 10.1451 13.9431 10.3879 14.0708L14.0432 15.9931L13.3453 11.9242C13.2989 11.6538 13.3887 11.3778 13.5852 11.1864L16.543 8.30551L12.4545 7.70792C12.1834 7.66829 11.949 7.4979 11.8277 7.2522L10 3.54939Z" fill="#151515"/>
</svg>
